<?xml version="1.0" standalone="no"?>
<!DOCTYPE svg PUBLIC "-//W3C//DTD SVG 20010904//EN"
 "http://www.w3.org/TR/2001/REC-SVG-20010904/DTD/svg10.dtd">
<svg version="1.0" xmlns="http://www.w3.org/2000/svg"
 width="256.000000pt" height="256.000000pt" viewBox="0 0 256.000000 256.000000"
 preserveAspectRatio="xMidYMid meet">
<metadata>
Created by potrace 1.11, written by Peter Selinger 2001-2013
</metadata>
<g transform="translate(0.000000,256.000000) scale(0.100000,-0.100000)"
fill="#000000" stroke="none">
<path d="M1134 2432 c3 -6 -8 -10 -27 -10 -42 0 -60 -5 -69 -17 -4 -5 -23 -8
-44 -6 -24 2 -34 -1 -30 -8 5 -7 -3 -11 -19 -11 -14 0 -44 -9 -66 -19 -21 -11
-36 -14 -32 -8 3 7 -5 1 -20 -12 -14 -12 -30 -20 -35 -17 -5 3 -15 -1 -22 -9
-7 -8 -16 -12 -21 -9 -5 3 -9 0 -9 -5 0 -6 -3 -10 -7 -9 -15 3 -43 -14 -38
-23 3 -4 -4 -6 -15 -4 -11 2 -18 0 -15 -4 4 -8 -18 -23 -38 -25 -4 -1 -12 -8
-17 -16 -5 -8 -15 -15 -22 -15 -7 -1 -12 -6 -10 -13 1 -7 -5 -12 -14 -12 -9 0
-25 -11 -36 -25 -11 -14 -25 -22 -31 -18 -7 3 -9 3 -5 -1 4 -5 -14 -28 -40
-52 -26 -25 -47 -50 -47 -57 0 -7 -10 -16 -23 -22 -12 -5 -22 -18 -22 -28 0
-10 -4 -15 -10 -12 -5 3 -10 -3 -10 -15 0 -12 -4 -19 -9 -16 -9 6 -24 -19 -26
-44 0 -8 -6 -14 -13 -13 -7 2 -13 -2 -13 -7 -2 -17 -5 -24 -25 -67 -10 -24
-22 -43 -26 -43 -4 0 -5 -7 -2 -15 4 -8 -1 -17 -10 -21 -10 -4 -16 -18 -16
-36 0 -16 -4 -27 -9 -23 -6 3 -10 -3 -10 -12 -1 -36 -4 -53 -11 -53 -3 0 -7
-9 -8 -20 -1 -11 -3 -29 -4 -40 -1 -11 -6 -20 -10 -20 -4 0 -8 -5 -8 -11 0 -5
6 -7 13 -3 10 6 10 4 0 -7 -7 -7 -13 -24 -13 -38 0 -15 -4 -33 -10 -41 -5 -9
-5 -19 2 -27 7 -9 7 -13 -1 -13 -6 0 -11 -5 -11 -11 0 -5 4 -8 8 -5 5 3 9 -1
9 -9 0 -8 -4 -12 -8 -10 -10 7 -5 -118 6 -134 5 -10 4 -12 -3 -7 -7 4 -12 1
-12 -9 0 -10 5 -13 13 -9 9 6 9 5 0 -8 -7 -8 -10 -18 -6 -22 8 -8 12 -27 14
-76 1 -19 5 -39 8 -45 3 -5 7 -16 8 -22 7 -31 12 -48 13 -48 1 0 3 -10 6 -22
8 -43 9 -48 14 -53 3 -3 11 -16 18 -29 11 -19 11 -22 0 -15 -7 4 -6 -1 3 -12
9 -10 15 -27 14 -36 -2 -10 0 -16 3 -15 4 1 8 -2 9 -7 1 -5 6 -12 13 -16 6 -4
12 -16 13 -28 0 -11 4 -19 8 -16 7 4 25 -37 20 -45 -2 -2 2 -7 7 -10 16 -10
84 -104 70 -96 -7 3 -4 -1 6 -9 11 -9 24 -16 29 -16 4 0 6 -4 3 -8 -3 -5 4
-14 14 -22 10 -8 17 -17 14 -22 -3 -4 2 -8 10 -8 9 0 16 -8 16 -17 0 -9 3 -14
6 -10 9 8 52 -36 46 -47 -3 -5 -1 -6 5 -3 5 3 27 -9 48 -28 21 -19 43 -35 49
-35 6 0 17 -9 24 -21 7 -12 16 -18 19 -15 3 3 17 -3 31 -14 13 -11 28 -17 33
-14 5 3 9 1 9 -5 0 -11 84 -51 107 -51 7 0 16 -7 19 -15 4 -8 10 -12 15 -9 6
3 16 0 24 -6 8 -7 22 -10 30 -6 8 3 15 2 15 -3 0 -10 52 -24 92 -25 14 0 24
-4 22 -8 -3 -4 11 -7 30 -6 19 1 41 -4 49 -10 10 -9 16 -9 25 0 9 9 15 9 24 0
14 -14 42 -16 33 -2 -3 6 -1 10 4 10 6 0 11 -4 11 -9 0 -5 20 -9 44 -8 25 0
43 4 40 8 -5 9 23 6 32 -4 12 -12 26 -8 18 6 -6 9 -4 9 8 -1 11 -9 18 -10 23
-2 3 5 11 10 16 10 6 0 7 -6 3 -13 -6 -8 -3 -8 9 1 9 8 32 14 52 14 19 0 33 4
30 8 -3 4 9 7 26 6 17 -1 38 4 47 11 9 7 32 13 50 13 24 0 31 4 26 12 -5 8 -2
8 10 -1 15 -12 17 -12 14 0 -2 9 4 13 15 11 9 -2 24 4 33 13 9 8 20 13 25 10
5 -4 9 -1 9 4 0 6 3 10 8 10 20 -3 33 2 27 11 -4 6 -3 9 2 8 15 -4 82 25 77
34 -3 4 3 8 14 8 10 0 27 9 37 20 10 11 24 20 32 20 8 0 12 4 8 9 -3 5 4 12
15 16 11 3 20 11 20 17 0 6 3 9 6 5 8 -8 34 18 34 33 0 6 4 9 9 5 6 -3 15 4
21 15 6 11 18 20 26 20 8 0 12 5 9 10 -3 6 1 10 9 10 10 0 13 6 9 17 -4 10 -2
14 4 10 12 -8 65 52 57 65 -3 5 0 7 8 6 7 -2 12 3 10 10 -1 6 2 12 8 12 5 0
10 7 10 16 0 8 5 12 10 9 6 -3 10 3 10 15 0 12 5 18 10 15 6 -3 10 2 10 12 1
23 25 55 35 45 5 -4 5 1 2 11 -4 9 -2 17 4 17 6 0 7 5 4 10 -3 6 -1 10 6 10 7
0 9 3 6 7 -4 3 1 15 10 26 13 15 14 18 3 12 -10 -6 -9 -1 3 13 11 12 16 26 11
33 -4 8 -3 10 4 5 8 -4 12 0 12 11 0 11 4 23 10 29 5 5 11 22 12 37 1 15 6 27
11 27 4 0 7 8 6 17 -1 10 0 20 1 23 1 3 3 16 5 30 10 62 18 96 29 109 8 11 8
13 -1 7 -8 -4 -13 -1 -13 9 0 9 4 14 9 10 9 -5 9 2 1 40 -1 6 -1 12 0 15 6 11
6 150 1 150 -3 0 -7 19 -8 43 -2 47 -8 89 -18 127 -4 14 -7 32 -7 40 -1 8 -7
25 -14 38 -7 14 -10 31 -7 40 4 10 2 13 -5 8 -8 -4 -12 0 -12 11 0 11 -6 25
-12 32 -9 10 -9 12 -1 7 7 -4 6 5 -3 24 -9 16 -20 30 -25 30 -5 0 -8 3 -8 8 1
4 0 10 -1 15 -4 12 -7 26 -9 38 0 5 -5 7 -11 4 -5 -3 -10 0 -10 8 0 21 -26 68
-33 60 -4 -3 -7 7 -8 23 0 16 -3 23 -6 16 -4 -10 -11 -5 -24 14 -10 15 -16 32
-13 36 3 5 2 7 -3 6 -4 -2 -8 0 -8 3 0 13 -28 38 -36 33 -5 -3 -9 0 -9 6 0 7
-32 42 -70 78 -100 95 -98 94 -103 79 -4 -9 -6 -8 -6 1 -1 16 -26 43 -33 36
-3 -2 -11 2 -18 11 -7 8 -18 15 -25 15 -6 0 -20 9 -29 19 -10 11 -37 25 -61
32 -28 8 -40 16 -32 21 7 5 -1 8 -19 8 -17 0 -37 7 -44 15 -6 8 -15 14 -18 13
-6 -1 -45 7 -77 17 -5 1 -14 3 -18 3 -4 0 -19 7 -32 16 -16 10 -26 12 -30 5
-4 -6 -12 -6 -18 -1 -7 4 -30 10 -52 11 -22 2 -43 8 -47 14 -5 8 -8 8 -8 1 0
-6 -7 -11 -15 -11 -8 0 -12 4 -9 9 8 13 -10 10 -25 -4 -11 -10 -13 -10 -7 0 4
6 2 12 -3 12 -6 0 -11 -6 -11 -12 0 -9 -3 -10 -8 -2 -9 14 -83 14 -101 0 -11
-8 -13 -8 -7 2 4 6 2 12 -3 12 -6 0 -11 -6 -11 -12 0 -10 -3 -9 -9 1 -7 11 -9
11 -13 0 -5 -12 -9 -12 -28 -1 -12 8 -19 9 -16 4z"/>
</g>
</svg>
